Isidore is a servant in a small Portuguese town in the seaside arrives from who knows where a mysterious child, Malo, the young woman later discovered that he murdered his entire family. Together, they will kill the fiance of Isidore, then go to an island almost deserted. Isidore is taken prisoner by a multifaceted character, Toby, who is transformed by turns in all family members. Freed, the girl can become the mistress of the castle pirates and marry Toby. But when she finishes them, she finds Malo and winds through all three residents of the island, the child murderer, the maid and Toby who is a ghost.

   General
      Complete name : La ville des pirates.avi
      Format : AVI
      Format/Info : Audio Video Interleave
      File size : 1.36 GiB
      Duration : 1h 48mn
      Overall bit rate : 1 804 Kbps
      Writing application : FairUse Wizard - http://fairusewizard.com
   Video #0
      ID : 0
      Format : MPEG-4 Visual
      Format profile : AdvancedSimple@L5
      Format settings, BVOP : Yes
      Format settings, QPel : No
      Format settings, GMC : No warppoints
      Format settings, Matrix : Default (MPEG)
      Muxing mode : Packed bitstream
      Codec ID : XVID
      Codec ID/Hint : XviD
      Duration : 1h 48mn
      Bit rate : 1 602 Kbps
      Width : 688 pixels
      Height : 496 pixels
      Display aspect ratio : 1.387
      Frame rate : 25.000 fps
      Resolution : 24 bits
      Colorimetry : 4:2:0
      Scan type : Progressive
      Bits/(Pixel*Frame) : 0.188
      Stream size : 1.21 GiB (89%)
      Writing library : XviD 1.2.1 (UTC 2008-12-04)
   Audio #1
      ID : 1
      Format : AC-3
      Format/Info : Audio Coding 3
      Codec ID : 2000
      Duration : 1h 48mn
      Bit rate mode : Constant
      Bit rate : 192 Kbps
      Channel(s) : 2 channels
      Channel positions : L R
      Sampling rate : 48.0 KHz
      Stream size : 149 MiB (11%)
      Alignment : Split accross interleaves
      Interleave, duration : 40 ms (1.00 video frame)
      Interleave, preload duration : 500 ms

 
http://www.imdb.com/title/tt0086546/

French audio; English, French and Portuguese subpack

My rip

Raoul Ruiz - La ville des pirates (1983)
